%
M48
M72
T01C0.0320
T02C0.0430
T03C0.1200
%
T01
X7360Y1260
X7360Y2580
X10360Y2580
X10360Y1260
X12160Y1440
X13160Y1440
X14160Y1440
X15160Y1440
X15160Y4440
X14160Y4440
X13160Y4440
X12160Y4440
X11260Y6060
X11260Y7140
X11260Y8100
X11260Y9180
X11260Y10140
X11260Y11220
X11260Y12180
X11020Y13560
X12340Y13560
X13740Y13840
X14740Y13840
X15740Y13840
X14260Y12180
X14260Y11220
X15400Y11220
X15400Y10140
X14260Y10140
X14260Y9180
X15400Y9180
X15400Y8100
X14260Y8100
X14260Y7140
X15400Y7140
X15400Y6060
X14260Y6060
X18400Y6060
X18400Y7140
X18400Y8100
X18400Y9180
X18400Y10140
X18400Y11220
X15740Y15880
X14740Y15880
X13740Y15880
X12340Y16560
X11020Y16560
T02
X9420Y11900
X8300Y11355
X9420Y10810
X8300Y10265
X9420Y9720
X8300Y9175
X9420Y8630
X8300Y8085
X9420Y7540
X20220Y7560
X21340Y8105
X20220Y8650
X21340Y9195
X20220Y9740
X21340Y10285
X20220Y10830
X21340Y11375
X20220Y11920
T03
X24090Y14660
X24090Y4820
X5550Y4800
X5550Y14640
M30
