G75*
%MOIN*%
%OFA0B0*%
%FSLAX24Y24*%
%IPPOS*%
%LPD*%
%AMOC8*
5,1,8,0,0,1.08239X$1,22.5*
%
%ADD10C,0.0520*%
%ADD11C,0.0645*%
%ADD12OC8,0.0520*%
%ADD13C,0.0160*%
%ADD14C,0.0120*%
D10*
X011000Y006060D02*
X011520Y006060D01*
X011520Y007140D02*
X011000Y007140D01*
X011000Y008100D02*
X011520Y008100D01*
X011520Y009180D02*
X011000Y009180D01*
X011000Y010140D02*
X011520Y010140D01*
X011520Y011220D02*
X011000Y011220D01*
X011000Y012180D02*
X011520Y012180D01*
X013740Y013580D02*
X013740Y014100D01*
X014740Y014100D02*
X014740Y013580D01*
X015740Y013580D02*
X015740Y014100D01*
X015740Y015620D02*
X015740Y016140D01*
X014740Y016140D02*
X014740Y015620D01*
X013740Y015620D02*
X013740Y016140D01*
X014000Y012180D02*
X014520Y012180D01*
X014520Y011220D02*
X014000Y011220D01*
X014000Y010140D02*
X014520Y010140D01*
X014520Y009180D02*
X014000Y009180D01*
X014000Y008100D02*
X014520Y008100D01*
X014520Y007140D02*
X014000Y007140D01*
X014000Y006060D02*
X014520Y006060D01*
X014160Y004700D02*
X014160Y004180D01*
X013160Y004180D02*
X013160Y004700D01*
X012160Y004700D02*
X012160Y004180D01*
X015160Y004180D02*
X015160Y004700D01*
X015160Y001700D02*
X015160Y001180D01*
X014160Y001180D02*
X014160Y001700D01*
X013160Y001700D02*
X013160Y001180D01*
X012160Y001180D02*
X012160Y001700D01*
D11*
X009420Y007540D03*
X008300Y008085D03*
X009420Y008630D03*
X008300Y009175D03*
X009420Y009720D03*
X008300Y010265D03*
X009420Y010810D03*
X008300Y011355D03*
X009420Y011900D03*
X020220Y011920D03*
X021340Y011375D03*
X020220Y010830D03*
X021340Y010285D03*
X020220Y009740D03*
X021340Y009195D03*
X020220Y008650D03*
X021340Y008105D03*
X020220Y007560D03*
D12*
X018400Y007140D03*
X018400Y008100D03*
X018400Y009180D03*
X018400Y010140D03*
X018400Y011220D03*
X015400Y011220D03*
X015400Y010140D03*
X015400Y009180D03*
X015400Y008100D03*
X015400Y007140D03*
X015400Y006060D03*
X018400Y006060D03*
X010360Y002580D03*
X010360Y001260D03*
X007360Y001260D03*
X007360Y002580D03*
X011020Y013560D03*
X012340Y013560D03*
X012340Y016560D03*
X011020Y016560D03*
D13*
X002880Y017440D02*
X002880Y000440D01*
X026720Y000440D01*
X026720Y017440D01*
X002880Y017440D01*
X002880Y017286D02*
X026720Y017286D01*
X026720Y017128D02*
X002880Y017128D01*
X002880Y016969D02*
X010807Y016969D01*
X010838Y017000D02*
X010580Y016742D01*
X010580Y016560D01*
X011020Y016560D01*
X011020Y016560D01*
X011020Y017000D01*
X011202Y017000D01*
X011460Y016742D01*
X011460Y016560D01*
X011020Y016560D01*
X011020Y016560D01*
X011020Y016560D01*
X011020Y017000D01*
X010838Y017000D01*
X011020Y016969D02*
X011020Y016969D01*
X011020Y016811D02*
X011020Y016811D01*
X011020Y016652D02*
X011020Y016652D01*
X011020Y016560D02*
X010580Y016560D01*
X010580Y016378D01*
X010838Y016120D01*
X011020Y016120D01*
X011202Y016120D01*
X011460Y016378D01*
X011460Y016560D01*
X011020Y016560D01*
X011020Y016120D01*
X011020Y016560D01*
X011020Y016560D01*
X011020Y016494D02*
X011020Y016494D01*
X011020Y016335D02*
X011020Y016335D01*
X011020Y016177D02*
X011020Y016177D01*
X011259Y016177D02*
X012101Y016177D01*
X012158Y016120D02*
X011900Y016378D01*
X011900Y016560D01*
X012340Y016560D01*
X012340Y016560D01*
X012340Y017000D01*
X012522Y017000D01*
X012780Y016742D01*
X012780Y016560D01*
X012340Y016560D01*
X012340Y016560D01*
X012340Y016560D01*
X012340Y017000D01*
X012158Y017000D01*
X011900Y016742D01*
X011900Y016560D01*
X012340Y016560D01*
X012780Y016560D01*
X012780Y016378D01*
X012522Y016120D01*
X012340Y016120D01*
X012340Y016560D01*
X012340Y016560D01*
X012340Y016120D01*
X012158Y016120D01*
X012340Y016177D02*
X012340Y016177D01*
X012340Y016335D02*
X012340Y016335D01*
X012340Y016494D02*
X012340Y016494D01*
X012340Y016652D02*
X012340Y016652D01*
X012340Y016811D02*
X012340Y016811D01*
X012340Y016969D02*
X012340Y016969D01*
X012553Y016969D02*
X026720Y016969D01*
X026720Y016811D02*
X012711Y016811D01*
X012780Y016652D02*
X026720Y016652D01*
X026720Y016494D02*
X015980Y016494D01*
X015978Y016496D02*
X015824Y016560D01*
X015656Y016560D01*
X015502Y016496D01*
X015384Y016378D01*
X015320Y016224D01*
X015320Y015536D01*
X015384Y015382D01*
X015502Y015264D01*
X015656Y015200D01*
X015824Y015200D01*
X015978Y015264D01*
X016096Y015382D01*
X016160Y015536D01*
X016160Y016224D01*
X016096Y016378D01*
X015978Y016496D01*
X016114Y016335D02*
X026720Y016335D01*
X026720Y016177D02*
X016160Y016177D01*
X016160Y016018D02*
X026720Y016018D01*
X026720Y015860D02*
X016160Y015860D01*
X016160Y015701D02*
X026720Y015701D01*
X026720Y015543D02*
X016160Y015543D01*
X016097Y015384D02*
X023801Y015384D01*
X023935Y015440D02*
X023648Y015321D01*
X023429Y015102D01*
X023310Y014815D01*
X023310Y014505D01*
X023429Y014218D01*
X023648Y013999D01*
X023935Y013880D01*
X024245Y013880D01*
X024532Y013999D01*
X024751Y014218D01*
X024870Y014505D01*
X024870Y014815D01*
X024751Y015102D01*
X024532Y015321D01*
X024245Y015440D01*
X023935Y015440D01*
X023553Y015226D02*
X015886Y015226D01*
X015594Y015226D02*
X014886Y015226D01*
X014836Y015205D02*
X014978Y015264D01*
X015096Y015382D01*
X015160Y015536D01*
X015160Y016224D01*
X015096Y016378D01*
X014978Y016496D01*
X014824Y016560D01*
X014656Y016560D01*
X014502Y016496D01*
X014384Y016378D01*
X014320Y016224D01*
X014320Y015536D01*
X014384Y015382D01*
X014387Y015379D01*
X014049Y015040D01*
X013349Y015040D01*
X013220Y014911D01*
X012840Y014531D01*
X012840Y008352D01*
X012831Y008274D01*
X012840Y008263D01*
X012840Y008249D01*
X012896Y008193D01*
X013611Y007299D01*
X013580Y007224D01*
X013580Y007056D01*
X013644Y006902D01*
X013762Y006784D01*
X013916Y006720D01*
X014604Y006720D01*
X014758Y006784D01*
X014876Y006902D01*
X014940Y007056D01*
X014940Y007224D01*
X014876Y007378D01*
X014758Y007496D01*
X014604Y007560D01*
X013966Y007560D01*
X013847Y007709D01*
X013916Y007680D01*
X014604Y007680D01*
X014758Y007744D01*
X014876Y007862D01*
X014940Y008016D01*
X014940Y008184D01*
X014876Y008338D01*
X014758Y008456D01*
X014604Y008520D01*
X013916Y008520D01*
X013762Y008456D01*
X013644Y008338D01*
X013580Y008184D01*
X013580Y008042D01*
X013280Y008417D01*
X013280Y014349D01*
X013531Y014600D01*
X014231Y014600D01*
X014831Y015200D01*
X014836Y015205D01*
X014699Y015067D02*
X023415Y015067D01*
X023349Y014909D02*
X014540Y014909D01*
X014382Y014750D02*
X023310Y014750D01*
X023310Y014592D02*
X013523Y014592D01*
X013502Y014456D02*
X013384Y014338D01*
X013320Y014184D01*
X013320Y013496D01*
X013384Y013342D01*
X013502Y013224D01*
X013656Y013160D01*
X013824Y013160D01*
X013978Y013224D01*
X014096Y013342D01*
X014160Y013496D01*
X014160Y014184D01*
X014096Y014338D01*
X013978Y014456D01*
X013824Y014520D01*
X013656Y014520D01*
X013502Y014456D01*
X013479Y014433D02*
X013365Y014433D01*
X013358Y014275D02*
X013280Y014275D01*
X013280Y014116D02*
X013320Y014116D01*
X013320Y013958D02*
X013280Y013958D01*
X013280Y013799D02*
X013320Y013799D01*
X013320Y013641D02*
X013280Y013641D01*
X013280Y013482D02*
X013326Y013482D01*
X013280Y013324D02*
X013402Y013324D01*
X013280Y013165D02*
X013643Y013165D01*
X013837Y013165D02*
X014643Y013165D01*
X014656Y013160D02*
X014824Y013160D01*
X014978Y013224D01*
X015096Y013342D01*
X015160Y013496D01*
X015160Y014184D01*
X015096Y014338D01*
X014978Y014456D01*
X014824Y014520D01*
X014656Y014520D01*
X014502Y014456D01*
X014384Y014338D01*
X014320Y014184D01*
X014320Y013496D01*
X014384Y013342D01*
X014502Y013224D01*
X014656Y013160D01*
X014837Y013165D02*
X015643Y013165D01*
X015656Y013160D02*
X015824Y013160D01*
X015978Y013224D01*
X016096Y013342D01*
X016160Y013496D01*
X016160Y014184D01*
X016096Y014338D01*
X015978Y014456D01*
X015824Y014520D01*
X015656Y014520D01*
X015502Y014456D01*
X015384Y014338D01*
X015320Y014184D01*
X015320Y013496D01*
X015384Y013342D01*
X015502Y013224D01*
X015656Y013160D01*
X015837Y013165D02*
X026720Y013165D01*
X026720Y013007D02*
X013280Y013007D01*
X013280Y012848D02*
X026720Y012848D01*
X026720Y012690D02*
X013280Y012690D01*
X013280Y012531D02*
X013757Y012531D01*
X013762Y012536D02*
X013644Y012418D01*
X013580Y012264D01*
X013580Y012096D01*
X013644Y011942D01*
X013762Y011824D01*
X013916Y011760D01*
X014604Y011760D01*
X014758Y011824D01*
X014876Y011942D01*
X014940Y012096D01*
X014940Y012264D01*
X014876Y012418D01*
X014758Y012536D01*
X014604Y012600D01*
X013916Y012600D01*
X013762Y012536D01*
X013625Y012373D02*
X013280Y012373D01*
X013280Y012214D02*
X013580Y012214D01*
X013597Y012056D02*
X013280Y012056D01*
X013280Y011897D02*
X013689Y011897D01*
X013762Y011576D02*
X013916Y011640D01*
X014604Y011640D01*
X014758Y011576D01*
X014876Y011458D01*
X014940Y011304D01*
X014940Y011136D01*
X014876Y010982D01*
X014758Y010864D01*
X014604Y010800D01*
X013916Y010800D01*
X013762Y010864D01*
X013644Y010982D01*
X013580Y011136D01*
X013580Y011304D01*
X013644Y011458D01*
X013762Y011576D01*
X013773Y011580D02*
X013280Y011580D01*
X013280Y011422D02*
X013629Y011422D01*
X013580Y011263D02*
X013280Y011263D01*
X013280Y011105D02*
X013593Y011105D01*
X013680Y010946D02*
X013280Y010946D01*
X013280Y010788D02*
X019080Y010788D01*
X019080Y010946D02*
X018720Y010946D01*
X018820Y011046D02*
X018574Y010800D01*
X018226Y010800D01*
X017980Y011046D01*
X017980Y011394D01*
X018226Y011640D01*
X018574Y011640D01*
X018820Y011394D01*
X018820Y011046D01*
X018820Y011105D02*
X019234Y011105D01*
X019080Y010951D02*
X019080Y009091D01*
X018509Y008520D01*
X018226Y008520D01*
X017980Y008274D01*
X017980Y007926D01*
X018226Y007680D01*
X018574Y007680D01*
X018820Y007926D01*
X018820Y008209D01*
X019391Y008780D01*
X019520Y008909D01*
X019520Y010769D01*
X019780Y011029D01*
X019738Y010926D01*
X019738Y010734D01*
X019811Y010557D01*
X019947Y010421D01*
X020124Y010348D01*
X020316Y010348D01*
X020493Y010421D01*
X020629Y010557D01*
X020702Y010734D01*
X020702Y010926D01*
X020629Y011103D01*
X020577Y011155D01*
X020909Y011155D01*
X020931Y011102D01*
X021067Y010966D01*
X021244Y010893D01*
X021436Y010893D01*
X021613Y010966D01*
X021749Y011102D01*
X021822Y011279D01*
X021822Y011471D01*
X021749Y011648D01*
X021613Y011784D01*
X021436Y011857D01*
X021244Y011857D01*
X021067Y011784D01*
X020931Y011648D01*
X020909Y011595D01*
X020577Y011595D01*
X020629Y011647D01*
X020702Y011824D01*
X020702Y012016D01*
X020629Y012193D01*
X020493Y012329D01*
X020316Y012402D01*
X020124Y012402D01*
X019947Y012329D01*
X019811Y012193D01*
X019738Y012016D01*
X019738Y011824D01*
X019811Y011647D01*
X019863Y011595D01*
X019724Y011595D01*
X019595Y011466D01*
X019080Y010951D01*
X018820Y011263D02*
X019392Y011263D01*
X019551Y011422D02*
X018792Y011422D01*
X018634Y011580D02*
X019709Y011580D01*
X019773Y011739D02*
X013280Y011739D01*
X012840Y011739D02*
X009892Y011739D01*
X009880Y011751D02*
X009902Y011804D01*
X009902Y011996D01*
X009829Y012173D01*
X009693Y012309D01*
X009516Y012382D01*
X009324Y012382D01*
X009147Y012309D01*
X009011Y012173D01*
X008938Y011996D01*
X008938Y011804D01*
X009011Y011627D01*
X009147Y011491D01*
X009324Y011418D01*
X009516Y011418D01*
X009569Y011440D01*
X009960Y011049D01*
X009960Y005491D01*
X007469Y003000D01*
X007186Y003000D01*
X006940Y002754D01*
X006940Y002406D01*
X007186Y002160D01*
X007534Y002160D01*
X007780Y002406D01*
X007780Y002689D01*
X010400Y005309D01*
X010400Y011231D01*
X009880Y011751D01*
X009902Y011897D02*
X010689Y011897D01*
X010644Y011942D02*
X010762Y011824D01*
X010916Y011760D01*
X011604Y011760D01*
X011758Y011824D01*
X011876Y011942D01*
X011940Y012096D01*
X011940Y012264D01*
X011876Y012418D01*
X011758Y012536D01*
X011604Y012600D01*
X010916Y012600D01*
X010762Y012536D01*
X010644Y012418D01*
X010580Y012264D01*
X010580Y012096D01*
X010644Y011942D01*
X010597Y012056D02*
X009878Y012056D01*
X009788Y012214D02*
X010580Y012214D01*
X010625Y012373D02*
X009539Y012373D01*
X009301Y012373D02*
X002880Y012373D01*
X002880Y012531D02*
X010757Y012531D01*
X010846Y013140D02*
X011194Y013140D01*
X011440Y013386D01*
X011440Y013734D01*
X011194Y013980D01*
X010846Y013980D01*
X010600Y013734D01*
X010600Y013386D01*
X010846Y013140D01*
X010821Y013165D02*
X002880Y013165D01*
X002880Y013007D02*
X012840Y013007D01*
X012840Y013165D02*
X012539Y013165D01*
X012514Y013140D02*
X012760Y013386D01*
X012760Y013734D01*
X012514Y013980D01*
X012166Y013980D01*
X011920Y013734D01*
X011920Y013386D01*
X012166Y013140D01*
X012514Y013140D01*
X012698Y013324D02*
X012840Y013324D01*
X012840Y013482D02*
X012760Y013482D01*
X012760Y013641D02*
X012840Y013641D01*
X012840Y013799D02*
X012695Y013799D01*
X012840Y013958D02*
X012536Y013958D01*
X012840Y014116D02*
X006130Y014116D01*
X006211Y014198D02*
X005992Y013979D01*
X005705Y013860D01*
X005395Y013860D01*
X005108Y013979D01*
X004889Y014198D01*
X004770Y014485D01*
X004770Y014795D01*
X004889Y015082D01*
X005108Y015301D01*
X005395Y015420D01*
X005705Y015420D01*
X005992Y015301D01*
X006211Y015082D01*
X006330Y014795D01*
X006330Y014485D01*
X006211Y014198D01*
X006243Y014275D02*
X012840Y014275D01*
X012840Y014433D02*
X006309Y014433D01*
X006330Y014592D02*
X012901Y014592D01*
X013059Y014750D02*
X006330Y014750D01*
X006283Y014909D02*
X013218Y014909D01*
X013502Y015264D02*
X013656Y015200D01*
X013824Y015200D01*
X013978Y015264D01*
X014096Y015382D01*
X014160Y015536D01*
X014160Y016224D01*
X014096Y016378D01*
X013978Y016496D01*
X013824Y016560D01*
X013656Y016560D01*
X013502Y016496D01*
X013384Y016378D01*
X013320Y016224D01*
X013320Y015536D01*
X013384Y015382D01*
X013502Y015264D01*
X013594Y015226D02*
X006067Y015226D01*
X006217Y015067D02*
X014076Y015067D01*
X014235Y015226D02*
X013886Y015226D01*
X014097Y015384D02*
X014383Y015384D01*
X014320Y015543D02*
X014160Y015543D01*
X014160Y015701D02*
X014320Y015701D01*
X014320Y015860D02*
X014160Y015860D01*
X014160Y016018D02*
X014320Y016018D01*
X014320Y016177D02*
X014160Y016177D01*
X014114Y016335D02*
X014366Y016335D01*
X014500Y016494D02*
X013980Y016494D01*
X013500Y016494D02*
X012780Y016494D01*
X012738Y016335D02*
X013366Y016335D01*
X013320Y016177D02*
X012579Y016177D01*
X011942Y016335D02*
X011418Y016335D01*
X011460Y016494D02*
X011900Y016494D01*
X011900Y016652D02*
X011460Y016652D01*
X011391Y016811D02*
X011969Y016811D01*
X012127Y016969D02*
X011233Y016969D01*
X010649Y016811D02*
X002880Y016811D01*
X002880Y016652D02*
X010580Y016652D01*
X010580Y016494D02*
X002880Y016494D01*
X002880Y016335D02*
X010622Y016335D01*
X010781Y016177D02*
X002880Y016177D01*
X002880Y016018D02*
X013320Y016018D01*
X013320Y015860D02*
X002880Y015860D01*
X002880Y015701D02*
X013320Y015701D01*
X013320Y015543D02*
X002880Y015543D01*
X002880Y015384D02*
X005309Y015384D01*
X005033Y015226D02*
X002880Y015226D01*
X002880Y015067D02*
X004883Y015067D01*
X004817Y014909D02*
X002880Y014909D01*
X002880Y014750D02*
X004770Y014750D01*
X004770Y014592D02*
X002880Y014592D01*
X002880Y014433D02*
X004791Y014433D01*
X004857Y014275D02*
X002880Y014275D01*
X002880Y014116D02*
X004970Y014116D01*
X005158Y013958D02*
X002880Y013958D01*
X002880Y013799D02*
X010665Y013799D01*
X010600Y013641D02*
X002880Y013641D01*
X002880Y013482D02*
X010600Y013482D01*
X010662Y013324D02*
X002880Y013324D01*
X002880Y012848D02*
X012840Y012848D01*
X012840Y012690D02*
X002880Y012690D01*
X002880Y012214D02*
X009052Y012214D01*
X008962Y012056D02*
X002880Y012056D01*
X002880Y011897D02*
X008938Y011897D01*
X008964Y011739D02*
X008598Y011739D01*
X008573Y011764D02*
X008709Y011628D01*
X008782Y011451D01*
X008782Y011259D01*
X008709Y011082D01*
X008573Y010946D01*
X008396Y010873D01*
X008204Y010873D01*
X008151Y010895D01*
X007760Y010504D01*
X007760Y004169D01*
X006920Y003329D01*
X006920Y002011D01*
X007251Y001680D01*
X007534Y001680D01*
X007780Y001434D01*
X007780Y001086D01*
X007534Y000840D01*
X007186Y000840D01*
X006940Y001086D01*
X006940Y001369D01*
X006480Y001829D01*
X006480Y003511D01*
X006609Y003640D01*
X007320Y004351D01*
X007320Y010686D01*
X007840Y011206D01*
X007818Y011259D01*
X007818Y011451D01*
X007891Y011628D01*
X008027Y011764D01*
X008204Y011837D01*
X008396Y011837D01*
X008573Y011764D01*
X008729Y011580D02*
X009057Y011580D01*
X009313Y011422D02*
X008782Y011422D01*
X008782Y011263D02*
X009254Y011263D01*
X009324Y011292D02*
X009147Y011219D01*
X009011Y011083D01*
X008938Y010906D01*
X008938Y010714D01*
X009011Y010537D01*
X009147Y010401D01*
X009324Y010328D01*
X009516Y010328D01*
X009693Y010401D01*
X009829Y010537D01*
X009902Y010714D01*
X009902Y010906D01*
X009829Y011083D01*
X009693Y011219D01*
X009516Y011292D01*
X009324Y011292D01*
X009527Y011422D02*
X009587Y011422D01*
X009586Y011263D02*
X009745Y011263D01*
X009807Y011105D02*
X009904Y011105D01*
X009886Y010946D02*
X009960Y010946D01*
X009960Y010788D02*
X009902Y010788D01*
X009867Y010629D02*
X009960Y010629D01*
X009960Y010471D02*
X009763Y010471D01*
X009960Y010312D02*
X008801Y010312D01*
X008802Y010305D02*
X008790Y010383D01*
X008766Y010458D01*
X008730Y010528D01*
X008683Y010592D01*
X008627Y010648D01*
X008563Y010695D01*
X008493Y010731D01*
X008418Y010755D01*
X008340Y010767D01*
X008328Y010767D01*
X008328Y010293D01*
X008272Y010293D01*
X008272Y010767D01*
X008260Y010767D01*
X008182Y010755D01*
X008107Y010731D01*
X008037Y010695D01*
X007973Y010648D01*
X007917Y010592D01*
X007870Y010528D01*
X007834Y010458D01*
X007810Y010383D01*
X007798Y010305D01*
X007798Y010293D01*
X008272Y010293D01*
X008272Y010237D01*
X007798Y010237D01*
X007798Y010225D01*
X007810Y010147D01*
X007834Y010072D01*
X007870Y010002D01*
X007917Y009938D01*
X007973Y009882D01*
X008037Y009835D01*
X008107Y009799D01*
X008182Y009775D01*
X008260Y009763D01*
X008272Y009762D01*
X008272Y010237D01*
X008328Y010237D01*
X008328Y010293D01*
X008802Y010293D01*
X008802Y010305D01*
X008802Y010237D02*
X008328Y010237D01*
X008328Y009763D01*
X008340Y009763D01*
X008418Y009775D01*
X008493Y009799D01*
X008563Y009835D01*
X008627Y009882D01*
X008683Y009938D01*
X008730Y010002D01*
X008766Y010072D01*
X008790Y010147D01*
X008802Y010225D01*
X008802Y010237D01*
X008791Y010154D02*
X009207Y010154D01*
X009147Y010129D02*
X009011Y009993D01*
X008938Y009816D01*
X008938Y009624D01*
X009011Y009447D01*
X009147Y009311D01*
X009324Y009238D01*
X009516Y009238D01*
X009693Y009311D01*
X009829Y009447D01*
X009902Y009624D01*
X009902Y009816D01*
X009829Y009993D01*
X009693Y010129D01*
X009516Y010202D01*
X009324Y010202D01*
X009147Y010129D01*
X009013Y009995D02*
X008725Y009995D01*
X008566Y009837D02*
X008946Y009837D01*
X008938Y009678D02*
X007760Y009678D01*
X007760Y009520D02*
X007963Y009520D01*
X008027Y009584D02*
X007891Y009448D01*
X007818Y009271D01*
X007818Y009079D01*
X007891Y008902D01*
X008027Y008766D01*
X008204Y008693D01*
X008396Y008693D01*
X008573Y008766D01*
X008709Y008902D01*
X008782Y009079D01*
X008782Y009271D01*
X008709Y009448D01*
X008573Y009584D01*
X008396Y009657D01*
X008204Y009657D01*
X008027Y009584D01*
X007855Y009361D02*
X007760Y009361D01*
X007760Y009203D02*
X007818Y009203D01*
X007832Y009044D02*
X007760Y009044D01*
X007760Y008886D02*
X007907Y008886D01*
X007760Y008727D02*
X008120Y008727D01*
X008204Y008567D02*
X008027Y008494D01*
X007891Y008358D01*
X007818Y008181D01*
X007818Y007989D01*
X007891Y007812D01*
X008027Y007676D01*
X008204Y007603D01*
X008396Y007603D01*
X008573Y007676D01*
X008709Y007812D01*
X008782Y007989D01*
X008782Y008181D01*
X008709Y008358D01*
X008573Y008494D01*
X008396Y008567D01*
X008204Y008567D01*
X007943Y008410D02*
X007760Y008410D01*
X007760Y008252D02*
X007847Y008252D01*
X007818Y008093D02*
X007760Y008093D01*
X007760Y007935D02*
X007840Y007935D01*
X007760Y007776D02*
X007926Y007776D01*
X007760Y007618D02*
X008167Y007618D01*
X008433Y007618D02*
X008938Y007618D01*
X008938Y007636D02*
X008938Y007444D01*
X009011Y007267D01*
X009147Y007131D01*
X009324Y007058D01*
X009516Y007058D01*
X009693Y007131D01*
X009829Y007267D01*
X009902Y007444D01*
X009902Y007636D01*
X009829Y007813D01*
X009693Y007949D01*
X009516Y008022D01*
X009324Y008022D01*
X009147Y007949D01*
X009011Y007813D01*
X008938Y007636D01*
X008996Y007776D02*
X008674Y007776D01*
X008760Y007935D02*
X009133Y007935D01*
X009147Y008221D02*
X009324Y008148D01*
X009516Y008148D01*
X009693Y008221D01*
X009829Y008357D01*
X009902Y008534D01*
X009902Y008726D01*
X009829Y008903D01*
X009693Y009039D01*
X009516Y009112D01*
X009324Y009112D01*
X009147Y009039D01*
X009011Y008903D01*
X008938Y008726D01*
X008938Y008534D01*
X009011Y008357D01*
X009147Y008221D01*
X009116Y008252D02*
X008753Y008252D01*
X008782Y008093D02*
X009960Y008093D01*
X009960Y007935D02*
X009707Y007935D01*
X009844Y007776D02*
X009960Y007776D01*
X009960Y007618D02*
X009902Y007618D01*
X009902Y007459D02*
X009960Y007459D01*
X009960Y007301D02*
X009843Y007301D01*
X009960Y007142D02*
X009705Y007142D01*
X009960Y006984D02*
X007760Y006984D01*
X007760Y007142D02*
X009135Y007142D01*
X008997Y007301D02*
X007760Y007301D01*
X007760Y007459D02*
X008938Y007459D01*
X009960Y006825D02*
X007760Y006825D01*
X007760Y006667D02*
X009960Y006667D01*
X009960Y006508D02*
X007760Y006508D01*
X007760Y006350D02*
X009960Y006350D01*
X009960Y006191D02*
X007760Y006191D01*
X007760Y006033D02*
X009960Y006033D01*
X009960Y005874D02*
X007760Y005874D01*
X007760Y005716D02*
X009960Y005716D01*
X009960Y005557D02*
X007760Y005557D01*
X007760Y005399D02*
X009868Y005399D01*
X009709Y005240D02*
X007760Y005240D01*
X007760Y005082D02*
X009551Y005082D01*
X009392Y004923D02*
X007760Y004923D01*
X007760Y004765D02*
X009234Y004765D01*
X009075Y004606D02*
X007760Y004606D01*
X007760Y004448D02*
X008917Y004448D01*
X008758Y004289D02*
X007760Y004289D01*
X007722Y004131D02*
X008600Y004131D01*
X008441Y003972D02*
X007564Y003972D01*
X007405Y003814D02*
X008283Y003814D01*
X008124Y003655D02*
X007247Y003655D01*
X007088Y003497D02*
X007966Y003497D01*
X007807Y003338D02*
X006930Y003338D01*
X006920Y003180D02*
X007649Y003180D01*
X007490Y003021D02*
X006920Y003021D01*
X006920Y002863D02*
X007049Y002863D01*
X006940Y002704D02*
X006920Y002704D01*
X006920Y002546D02*
X006940Y002546D01*
X006920Y002387D02*
X006959Y002387D01*
X006920Y002229D02*
X007117Y002229D01*
X006920Y002070D02*
X010859Y002070D01*
X010701Y001912D02*
X007019Y001912D01*
X007178Y001753D02*
X010542Y001753D01*
X010469Y001680D02*
X010186Y001680D01*
X009940Y001434D01*
X009940Y001086D01*
X010186Y000840D01*
X010534Y000840D01*
X010780Y001086D01*
X010780Y001369D01*
X011531Y002120D01*
X012369Y002120D01*
X012740Y001749D01*
X012740Y001096D01*
X012804Y000942D01*
X012922Y000824D01*
X013076Y000760D01*
X013244Y000760D01*
X013398Y000824D01*
X013516Y000942D01*
X013580Y001096D01*
X013580Y001784D01*
X013516Y001938D01*
X013398Y002056D01*
X013244Y002120D01*
X013076Y002120D01*
X013016Y002095D01*
X012551Y002560D01*
X011349Y002560D01*
X011220Y002431D01*
X010469Y001680D01*
X010101Y001595D02*
X007619Y001595D01*
X007778Y001436D02*
X009942Y001436D01*
X009940Y001278D02*
X007780Y001278D01*
X007780Y001119D02*
X009940Y001119D01*
X010065Y000961D02*
X007655Y000961D01*
X007065Y000961D02*
X002880Y000961D01*
X002880Y001119D02*
X006940Y001119D01*
X006940Y001278D02*
X002880Y001278D01*
X002880Y001436D02*
X006872Y001436D01*
X006714Y001595D02*
X002880Y001595D01*
X002880Y001753D02*
X006555Y001753D01*
X006480Y001912D02*
X002880Y001912D01*
X002880Y002070D02*
X006480Y002070D01*
X006480Y002229D02*
X002880Y002229D01*
X002880Y002387D02*
X006480Y002387D01*
X006480Y002546D02*
X002880Y002546D01*
X002880Y002704D02*
X006480Y002704D01*
X006480Y002863D02*
X002880Y002863D01*
X002880Y003021D02*
X006480Y003021D01*
X006480Y003180D02*
X002880Y003180D01*
X002880Y003338D02*
X006480Y003338D01*
X006480Y003497D02*
X002880Y003497D01*
X002880Y003655D02*
X006624Y003655D01*
X006783Y003814D02*
X002880Y003814D01*
X002880Y003972D02*
X006941Y003972D01*
X007100Y004131D02*
X005973Y004131D01*
X005992Y004139D02*
X006211Y004358D01*
X006330Y004645D01*
X006330Y004955D01*
X006211Y005242D01*
X005992Y005461D01*
X005705Y005580D01*
X005395Y005580D01*
X005108Y005461D01*
X004889Y005242D01*
X004770Y004955D01*
X004770Y004645D01*
X004889Y004358D01*
X005108Y004139D01*
X005395Y004020D01*
X005705Y004020D01*
X005992Y004139D01*
X006143Y004289D02*
X007258Y004289D01*
X007320Y004448D02*
X006248Y004448D01*
X006314Y004606D02*
X007320Y004606D01*
X007320Y004765D02*
X006330Y004765D01*
X006330Y004923D02*
X007320Y004923D01*
X007320Y005082D02*
X006277Y005082D01*
X006212Y005240D02*
X007320Y005240D01*
X007320Y005399D02*
X006054Y005399D01*
X005760Y005557D02*
X007320Y005557D01*
X007320Y005716D02*
X002880Y005716D01*
X002880Y005874D02*
X007320Y005874D01*
X007320Y006033D02*
X002880Y006033D01*
X002880Y006191D02*
X007320Y006191D01*
X007320Y006350D02*
X002880Y006350D01*
X002880Y006508D02*
X007320Y006508D01*
X007320Y006667D02*
X002880Y006667D01*
X002880Y006825D02*
X007320Y006825D01*
X007320Y006984D02*
X002880Y006984D01*
X002880Y007142D02*
X007320Y007142D01*
X007320Y007301D02*
X002880Y007301D01*
X002880Y007459D02*
X007320Y007459D01*
X007320Y007618D02*
X002880Y007618D01*
X002880Y007776D02*
X007320Y007776D01*
X007320Y007935D02*
X002880Y007935D01*
X002880Y008093D02*
X007320Y008093D01*
X007320Y008252D02*
X002880Y008252D01*
X002880Y008410D02*
X007320Y008410D01*
X007320Y008569D02*
X002880Y008569D01*
X002880Y008727D02*
X007320Y008727D01*
X007320Y008886D02*
X002880Y008886D01*
X002880Y009044D02*
X007320Y009044D01*
X007320Y009203D02*
X002880Y009203D01*
X002880Y009361D02*
X007320Y009361D01*
X007320Y009520D02*
X002880Y009520D01*
X002880Y009678D02*
X007320Y009678D01*
X007320Y009837D02*
X002880Y009837D01*
X002880Y009995D02*
X007320Y009995D01*
X007320Y010154D02*
X002880Y010154D01*
X002880Y010312D02*
X007320Y010312D01*
X007320Y010471D02*
X002880Y010471D01*
X002880Y010629D02*
X007320Y010629D01*
X007422Y010788D02*
X002880Y010788D01*
X002880Y010946D02*
X007580Y010946D01*
X007739Y011105D02*
X002880Y011105D01*
X002880Y011263D02*
X007818Y011263D01*
X007818Y011422D02*
X002880Y011422D01*
X002880Y011580D02*
X007871Y011580D01*
X008002Y011739D02*
X002880Y011739D01*
X005942Y013958D02*
X010824Y013958D01*
X011216Y013958D02*
X012144Y013958D01*
X011985Y013799D02*
X011375Y013799D01*
X011440Y013641D02*
X011920Y013641D01*
X011920Y013482D02*
X011440Y013482D01*
X011378Y013324D02*
X011982Y013324D01*
X012141Y013165D02*
X011219Y013165D01*
X011763Y012531D02*
X012840Y012531D01*
X012840Y012373D02*
X011895Y012373D01*
X011940Y012214D02*
X012840Y012214D01*
X012840Y012056D02*
X011923Y012056D01*
X011831Y011897D02*
X012840Y011897D01*
X012840Y011580D02*
X011747Y011580D01*
X011758Y011576D02*
X011604Y011640D01*
X010916Y011640D01*
X010762Y011576D01*
X010644Y011458D01*
X010580Y011304D01*
X010580Y011136D01*
X010644Y010982D01*
X010762Y010864D01*
X010916Y010800D01*
X011604Y010800D01*
X011758Y010864D01*
X011876Y010982D01*
X011940Y011136D01*
X011940Y011304D01*
X011876Y011458D01*
X011758Y011576D01*
X011891Y011422D02*
X012840Y011422D01*
X012840Y011263D02*
X011940Y011263D01*
X011927Y011105D02*
X012840Y011105D01*
X012840Y010946D02*
X011840Y010946D01*
X011604Y010560D02*
X010916Y010560D01*
X010762Y010496D01*
X010644Y010378D01*
X010580Y010224D01*
X010580Y010056D01*
X010644Y009902D01*
X010762Y009784D01*
X010916Y009720D01*
X011604Y009720D01*
X011758Y009784D01*
X011876Y009902D01*
X011940Y010056D01*
X011940Y010224D01*
X011876Y010378D01*
X011758Y010496D01*
X011604Y010560D01*
X011783Y010471D02*
X012840Y010471D01*
X012840Y010629D02*
X010400Y010629D01*
X010400Y010471D02*
X010737Y010471D01*
X010617Y010312D02*
X010400Y010312D01*
X010400Y010154D02*
X010580Y010154D01*
X010605Y009995D02*
X010400Y009995D01*
X010400Y009837D02*
X010709Y009837D01*
X010400Y009678D02*
X012840Y009678D01*
X012840Y009520D02*
X011774Y009520D01*
X011758Y009536D02*
X011604Y009600D01*
X010916Y009600D01*
X010762Y009536D01*
X010644Y009418D01*
X010580Y009264D01*
X010580Y009096D01*
X010644Y008942D01*
X010762Y008824D01*
X010916Y008760D01*
X011604Y008760D01*
X011758Y008824D01*
X011876Y008942D01*
X011940Y009096D01*
X011940Y009264D01*
X011876Y009418D01*
X011758Y009536D01*
X011899Y009361D02*
X012840Y009361D01*
X012840Y009203D02*
X011940Y009203D01*
X011918Y009044D02*
X012840Y009044D01*
X012840Y008886D02*
X011820Y008886D01*
X011604Y008520D02*
X010916Y008520D01*
X010762Y008456D01*
X010644Y008338D01*
X010580Y008184D01*
X010580Y008016D01*
X010644Y007862D01*
X010762Y007744D01*
X010916Y007680D01*
X011604Y007680D01*
X011758Y007744D01*
X011876Y007862D01*
X011940Y008016D01*
X011940Y008184D01*
X011876Y008338D01*
X011758Y008456D01*
X011604Y008520D01*
X011804Y008410D02*
X012840Y008410D01*
X012840Y008252D02*
X011912Y008252D01*
X011940Y008093D02*
X012976Y008093D01*
X013102Y007935D02*
X011906Y007935D01*
X011790Y007776D02*
X013229Y007776D01*
X013356Y007618D02*
X010400Y007618D01*
X010400Y007776D02*
X010730Y007776D01*
X010614Y007935D02*
X010400Y007935D01*
X010400Y008093D02*
X010580Y008093D01*
X010608Y008252D02*
X010400Y008252D01*
X010400Y008410D02*
X010716Y008410D01*
X010400Y008569D02*
X012840Y008569D01*
X012840Y008727D02*
X010400Y008727D01*
X010400Y008886D02*
X010700Y008886D01*
X010602Y009044D02*
X010400Y009044D01*
X010400Y009203D02*
X010580Y009203D01*
X010621Y009361D02*
X010400Y009361D01*
X010400Y009520D02*
X010746Y009520D01*
X009960Y009520D02*
X009859Y009520D01*
X009902Y009678D02*
X009960Y009678D01*
X009960Y009837D02*
X009894Y009837D01*
X009827Y009995D02*
X009960Y009995D01*
X009960Y010154D02*
X009633Y010154D01*
X009077Y010471D02*
X008759Y010471D01*
X008646Y010629D02*
X008973Y010629D01*
X008938Y010788D02*
X008044Y010788D01*
X007954Y010629D02*
X007886Y010629D01*
X007841Y010471D02*
X007760Y010471D01*
X007760Y010312D02*
X007799Y010312D01*
X007809Y010154D02*
X007760Y010154D01*
X007760Y009995D02*
X007875Y009995D01*
X007760Y009837D02*
X008034Y009837D01*
X008272Y009837D02*
X008328Y009837D01*
X008328Y009995D02*
X008272Y009995D01*
X008272Y010154D02*
X008328Y010154D01*
X008328Y010312D02*
X008272Y010312D01*
X008272Y010471D02*
X008328Y010471D01*
X008328Y010629D02*
X008272Y010629D01*
X008574Y010946D02*
X008954Y010946D01*
X009033Y011105D02*
X008719Y011105D01*
X010051Y011580D02*
X010773Y011580D01*
X010629Y011422D02*
X010209Y011422D01*
X010368Y011263D02*
X010580Y011263D01*
X010593Y011105D02*
X010400Y011105D01*
X010400Y010946D02*
X010680Y010946D01*
X010400Y010788D02*
X012840Y010788D01*
X013280Y010629D02*
X019080Y010629D01*
X019080Y010471D02*
X018663Y010471D01*
X018574Y010560D02*
X018226Y010560D01*
X017980Y010314D01*
X017980Y009966D01*
X018226Y009720D01*
X018574Y009720D01*
X018820Y009966D01*
X018820Y010314D01*
X018574Y010560D01*
X018137Y010471D02*
X015663Y010471D01*
X015574Y010560D02*
X015226Y010560D01*
X014980Y010314D01*
X014980Y009966D01*
X015226Y009720D01*
X015574Y009720D01*
X015820Y009966D01*
X015820Y010314D01*
X015574Y010560D01*
X015574Y010800D02*
X015226Y010800D01*
X014980Y011046D01*
X014980Y011394D01*
X015226Y011640D01*
X015574Y011640D01*
X015820Y011394D01*
X015820Y011046D01*
X015574Y010800D01*
X015720Y010946D02*
X018080Y010946D01*
X017980Y011105D02*
X015820Y011105D01*
X015820Y011263D02*
X017980Y011263D01*
X018008Y011422D02*
X015792Y011422D01*
X015634Y011580D02*
X018166Y011580D01*
X019539Y010788D02*
X019738Y010788D01*
X019746Y010946D02*
X019698Y010946D01*
X019781Y010629D02*
X019520Y010629D01*
X019520Y010471D02*
X019897Y010471D01*
X019947Y010149D02*
X020124Y010222D01*
X020316Y010222D01*
X020493Y010149D01*
X020629Y010013D01*
X020702Y009836D01*
X020702Y009644D01*
X020629Y009467D01*
X020493Y009331D01*
X020316Y009258D01*
X020124Y009258D01*
X019947Y009331D01*
X019811Y009467D01*
X019738Y009644D01*
X019738Y009836D01*
X019811Y010013D01*
X019947Y010149D01*
X019959Y010154D02*
X019520Y010154D01*
X019520Y010312D02*
X021312Y010312D01*
X021312Y010313D02*
X021312Y010257D01*
X020838Y010257D01*
X020838Y010245D01*
X020850Y010167D01*
X020874Y010092D01*
X020910Y010022D01*
X020957Y009958D01*
X021013Y009902D01*
X021077Y009855D01*
X021147Y009819D01*
X021222Y009795D01*
X021300Y009783D01*
X021312Y009782D01*
X021312Y010257D01*
X021368Y010257D01*
X021368Y010313D01*
X021312Y010313D01*
X021312Y010787D01*
X021300Y010787D01*
X021222Y010775D01*
X021147Y010751D01*
X021077Y010715D01*
X021013Y010668D01*
X020957Y010612D01*
X020910Y010548D01*
X020874Y010478D01*
X020850Y010403D01*
X020838Y010325D01*
X020838Y010313D01*
X021312Y010313D01*
X021368Y010313D02*
X021368Y010787D01*
X021380Y010787D01*
X021458Y010775D01*
X021533Y010751D01*
X021603Y010715D01*
X021667Y010668D01*
X021723Y010612D01*
X021770Y010548D01*
X021806Y010478D01*
X021830Y010403D01*
X021842Y010325D01*
X021842Y010313D01*
X021368Y010313D01*
X021368Y010312D02*
X026720Y010312D01*
X026720Y010154D02*
X021826Y010154D01*
X021830Y010167D02*
X021842Y010245D01*
X021842Y010257D01*
X021368Y010257D01*
X021368Y009783D01*
X021380Y009783D01*
X021458Y009795D01*
X021533Y009819D01*
X021603Y009855D01*
X021667Y009902D01*
X021723Y009958D01*
X021770Y010022D01*
X021806Y010092D01*
X021830Y010167D01*
X021751Y009995D02*
X026720Y009995D01*
X026720Y009837D02*
X021568Y009837D01*
X021368Y009837D02*
X021312Y009837D01*
X021312Y009995D02*
X021368Y009995D01*
X021368Y010154D02*
X021312Y010154D01*
X021112Y009837D02*
X020702Y009837D01*
X020702Y009678D02*
X026720Y009678D01*
X026720Y009520D02*
X021697Y009520D01*
X021749Y009468D02*
X021613Y009604D01*
X021436Y009677D01*
X021244Y009677D01*
X021067Y009604D01*
X020931Y009468D01*
X020858Y009291D01*
X020858Y009099D01*
X020931Y008922D01*
X021067Y008786D01*
X021244Y008713D01*
X021436Y008713D01*
X021613Y008786D01*
X021749Y008922D01*
X021822Y009099D01*
X021822Y009291D01*
X021749Y009468D01*
X021793Y009361D02*
X026720Y009361D01*
X026720Y009203D02*
X021822Y009203D01*
X021800Y009044D02*
X026720Y009044D01*
X026720Y008886D02*
X021713Y008886D01*
X021472Y008727D02*
X026720Y008727D01*
X026720Y008569D02*
X021481Y008569D01*
X021436Y008587D02*
X021613Y008514D01*
X021749Y008378D01*
X021822Y008201D01*
X021822Y008009D01*
X021749Y007832D01*
X021613Y007696D01*
X021436Y007623D01*
X021244Y007623D01*
X021067Y007696D01*
X020931Y007832D01*
X020858Y008009D01*
X020858Y008201D01*
X020931Y008378D01*
X021067Y008514D01*
X021244Y008587D01*
X021436Y008587D01*
X021199Y008569D02*
X020702Y008569D01*
X020702Y008554D02*
X020629Y008377D01*
X020493Y008241D01*
X020316Y008168D01*
X020124Y008168D01*
X019947Y008241D01*
X019811Y008377D01*
X019738Y008554D01*
X019738Y008746D01*
X019811Y008923D01*
X019947Y009059D01*
X020124Y009132D01*
X020316Y009132D01*
X020493Y009059D01*
X020629Y008923D01*
X020702Y008746D01*
X020702Y008554D01*
X020643Y008410D02*
X020963Y008410D01*
X020879Y008252D02*
X020504Y008252D01*
X020858Y008093D02*
X018820Y008093D01*
X018820Y007935D02*
X019913Y007935D01*
X019947Y007969D02*
X019811Y007833D01*
X019738Y007656D01*
X019738Y007464D01*
X019811Y007287D01*
X019947Y007151D01*
X020124Y007078D01*
X020316Y007078D01*
X020493Y007151D01*
X020629Y007287D01*
X020702Y007464D01*
X020702Y007656D01*
X020629Y007833D01*
X020493Y007969D01*
X020316Y008042D01*
X020124Y008042D01*
X019947Y007969D01*
X019787Y007776D02*
X018670Y007776D01*
X018574Y007560D02*
X018226Y007560D01*
X017980Y007314D01*
X017980Y006966D01*
X018226Y006720D01*
X018574Y006720D01*
X018820Y006966D01*
X018820Y007314D01*
X018574Y007560D01*
X018675Y007459D02*
X019739Y007459D01*
X019738Y007618D02*
X013919Y007618D01*
X013483Y007459D02*
X011795Y007459D01*
X011758Y007496D02*
X011604Y007560D01*
X010916Y007560D01*
X010762Y007496D01*
X010644Y007378D01*
X010580Y007224D01*
X010580Y007056D01*
X010644Y006902D01*
X010762Y006784D01*
X010916Y006720D01*
X011604Y006720D01*
X011758Y006784D01*
X011876Y006902D01*
X011940Y007056D01*
X011940Y007224D01*
X011876Y007378D01*
X011758Y007496D01*
X011908Y007301D02*
X013610Y007301D01*
X013580Y007142D02*
X011940Y007142D01*
X011910Y006984D02*
X013610Y006984D01*
X013721Y006825D02*
X011799Y006825D01*
X011604Y006480D02*
X010916Y006480D01*
X010762Y006416D01*
X010644Y006298D01*
X010580Y006144D01*
X010580Y005976D01*
X010644Y005822D01*
X010762Y005704D01*
X010916Y005640D01*
X011604Y005640D01*
X011758Y005704D01*
X011876Y005822D01*
X011940Y005976D01*
X011940Y006144D01*
X011876Y006298D01*
X011758Y006416D01*
X011604Y006480D01*
X011824Y006350D02*
X013696Y006350D01*
X013644Y006298D02*
X013580Y006144D01*
X013580Y005976D01*
X013644Y005822D01*
X013762Y005704D01*
X013916Y005640D01*
X014604Y005640D01*
X014758Y005704D01*
X014876Y005822D01*
X014940Y005976D01*
X014940Y006144D01*
X014876Y006298D01*
X014758Y006416D01*
X014604Y006480D01*
X013916Y006480D01*
X013762Y006416D01*
X013644Y006298D01*
X013600Y006191D02*
X011920Y006191D01*
X011940Y006033D02*
X013580Y006033D01*
X013622Y005874D02*
X011898Y005874D01*
X011770Y005716D02*
X013750Y005716D01*
X013985Y005082D02*
X013335Y005082D01*
X013398Y005056D02*
X013244Y005120D01*
X013076Y005120D01*
X012922Y005056D01*
X012804Y004938D01*
X012740Y004784D01*
X012740Y004096D01*
X012804Y003942D01*
X012922Y003824D01*
X013076Y003760D01*
X013244Y003760D01*
X013398Y003824D01*
X013516Y003942D01*
X013580Y004096D01*
X013580Y004784D01*
X013516Y004938D01*
X013398Y005056D01*
X013522Y004923D02*
X013798Y004923D01*
X013804Y004938D02*
X013740Y004784D01*
X013740Y004096D01*
X013804Y003942D01*
X013922Y003824D01*
X014076Y003760D01*
X014244Y003760D01*
X014398Y003824D01*
X014516Y003942D01*
X014580Y004096D01*
X014580Y004784D01*
X014516Y004938D01*
X014398Y005056D01*
X014244Y005120D01*
X014076Y005120D01*
X013922Y005056D01*
X013804Y004938D01*
X013740Y004765D02*
X013580Y004765D01*
X013580Y004606D02*
X013740Y004606D01*
X013740Y004448D02*
X013580Y004448D01*
X013580Y004289D02*
X013740Y004289D01*
X013740Y004131D02*
X013580Y004131D01*
X013529Y003972D02*
X013791Y003972D01*
X013946Y003814D02*
X013374Y003814D01*
X012946Y003814D02*
X012374Y003814D01*
X012398Y003824D02*
X012516Y003942D01*
X012580Y004096D01*
X012580Y004784D01*
X012516Y004938D01*
X012398Y005056D01*
X012244Y005120D01*
X012076Y005120D01*
X011922Y005056D01*
X011804Y004938D01*
X011740Y004784D01*
X011740Y004096D01*
X011804Y003942D01*
X011922Y003824D01*
X012076Y003760D01*
X012244Y003760D01*
X012398Y003824D01*
X012529Y003972D02*
X012791Y003972D01*
X012740Y004131D02*
X012580Y004131D01*
X012580Y004289D02*
X012740Y004289D01*
X012740Y004448D02*
X012580Y004448D01*
X012580Y004606D02*
X012740Y004606D01*
X012740Y004765D02*
X012580Y004765D01*
X012522Y004923D02*
X012798Y004923D01*
X012985Y005082D02*
X012335Y005082D01*
X011985Y005082D02*
X010173Y005082D01*
X010015Y004923D02*
X011798Y004923D01*
X011740Y004765D02*
X009856Y004765D01*
X009698Y004606D02*
X011740Y004606D01*
X011740Y004448D02*
X009539Y004448D01*
X009381Y004289D02*
X011740Y004289D01*
X011740Y004131D02*
X009222Y004131D01*
X009064Y003972D02*
X011791Y003972D01*
X011946Y003814D02*
X008905Y003814D01*
X008747Y003655D02*
X026720Y003655D01*
X026720Y003497D02*
X008588Y003497D01*
X008430Y003338D02*
X026720Y003338D01*
X026720Y003180D02*
X008271Y003180D01*
X008113Y003021D02*
X010490Y003021D01*
X010509Y003040D02*
X010469Y003000D01*
X010186Y003000D01*
X009940Y002754D01*
X009940Y002406D01*
X010186Y002160D01*
X010534Y002160D01*
X010780Y002406D01*
X010780Y002600D01*
X012969Y002600D01*
X013753Y001816D01*
X013740Y001784D01*
X013740Y001096D01*
X013804Y000942D01*
X013922Y000824D01*
X014076Y000760D01*
X014244Y000760D01*
X014398Y000824D01*
X014516Y000942D01*
X014580Y001096D01*
X014580Y001784D01*
X014516Y001938D01*
X014398Y002056D01*
X014244Y002120D01*
X014076Y002120D01*
X014073Y002118D01*
X013151Y003040D01*
X010509Y003040D01*
X010049Y002863D02*
X007954Y002863D01*
X007796Y002704D02*
X009940Y002704D01*
X009940Y002546D02*
X007780Y002546D01*
X007761Y002387D02*
X009959Y002387D01*
X010117Y002229D02*
X007603Y002229D01*
X010603Y002229D02*
X011018Y002229D01*
X011176Y002387D02*
X010761Y002387D01*
X010780Y002546D02*
X011335Y002546D01*
X011220Y002431D02*
X011220Y002431D01*
X011482Y002070D02*
X011957Y002070D01*
X011922Y002056D02*
X011804Y001938D01*
X011740Y001784D01*
X011740Y001096D01*
X011804Y000942D01*
X011922Y000824D01*
X012076Y000760D01*
X012244Y000760D01*
X012398Y000824D01*
X012516Y000942D01*
X012580Y001096D01*
X012580Y001784D01*
X012516Y001938D01*
X012398Y002056D01*
X012244Y002120D01*
X012076Y002120D01*
X011922Y002056D01*
X011793Y001912D02*
X011323Y001912D01*
X011165Y001753D02*
X011740Y001753D01*
X011740Y001595D02*
X011006Y001595D01*
X010848Y001436D02*
X011740Y001436D01*
X011740Y001278D02*
X010780Y001278D01*
X010780Y001119D02*
X011740Y001119D01*
X011796Y000961D02*
X010655Y000961D01*
X011974Y000802D02*
X002880Y000802D01*
X002880Y000644D02*
X026720Y000644D01*
X026720Y000802D02*
X015346Y000802D01*
X015398Y000824D02*
X015516Y000942D01*
X015580Y001096D01*
X015580Y001784D01*
X015516Y001938D01*
X015398Y002056D01*
X015244Y002120D01*
X015076Y002120D01*
X014922Y002056D01*
X014804Y001938D01*
X014740Y001784D01*
X014740Y001096D01*
X014804Y000942D01*
X014922Y000824D01*
X015076Y000760D01*
X015244Y000760D01*
X015398Y000824D01*
X015524Y000961D02*
X026720Y000961D01*
X026720Y001119D02*
X015580Y001119D01*
X015580Y001278D02*
X026720Y001278D01*
X026720Y001436D02*
X015580Y001436D01*
X015580Y001595D02*
X026720Y001595D01*
X026720Y001753D02*
X015580Y001753D01*
X015527Y001912D02*
X026720Y001912D01*
X026720Y002070D02*
X015363Y002070D01*
X014957Y002070D02*
X014363Y002070D01*
X014527Y001912D02*
X014793Y001912D01*
X014740Y001753D02*
X014580Y001753D01*
X014580Y001595D02*
X014740Y001595D01*
X014740Y001436D02*
X014580Y001436D01*
X014580Y001278D02*
X014740Y001278D01*
X014740Y001119D02*
X014580Y001119D01*
X014524Y000961D02*
X014796Y000961D01*
X014974Y000802D02*
X014346Y000802D01*
X013974Y000802D02*
X013346Y000802D01*
X013524Y000961D02*
X013796Y000961D01*
X013740Y001119D02*
X013580Y001119D01*
X013580Y001278D02*
X013740Y001278D01*
X013740Y001436D02*
X013580Y001436D01*
X013580Y001595D02*
X013740Y001595D01*
X013740Y001753D02*
X013580Y001753D01*
X013527Y001912D02*
X013657Y001912D01*
X013498Y002070D02*
X013363Y002070D01*
X013340Y002229D02*
X012882Y002229D01*
X012724Y002387D02*
X013181Y002387D01*
X013023Y002546D02*
X012565Y002546D01*
X013170Y003021D02*
X026720Y003021D01*
X026720Y002863D02*
X013328Y002863D01*
X013487Y002704D02*
X026720Y002704D01*
X026720Y002546D02*
X013645Y002546D01*
X013804Y002387D02*
X026720Y002387D01*
X026720Y002229D02*
X013962Y002229D01*
X012735Y001753D02*
X012580Y001753D01*
X012580Y001595D02*
X012740Y001595D01*
X012740Y001436D02*
X012580Y001436D01*
X012580Y001278D02*
X012740Y001278D01*
X012740Y001119D02*
X012580Y001119D01*
X012524Y000961D02*
X012796Y000961D01*
X012974Y000802D02*
X012346Y000802D01*
X012527Y001912D02*
X012577Y001912D01*
X012418Y002070D02*
X012363Y002070D01*
X014374Y003814D02*
X014946Y003814D01*
X014922Y003824D02*
X015076Y003760D01*
X015244Y003760D01*
X015398Y003824D01*
X015516Y003942D01*
X015580Y004096D01*
X015580Y004784D01*
X015516Y004938D01*
X015398Y005056D01*
X015244Y005120D01*
X015076Y005120D01*
X014922Y005056D01*
X014804Y004938D01*
X014740Y004784D01*
X014740Y004096D01*
X014804Y003942D01*
X014922Y003824D01*
X014791Y003972D02*
X014529Y003972D01*
X014580Y004131D02*
X014740Y004131D01*
X014740Y004289D02*
X014580Y004289D01*
X014580Y004448D02*
X014740Y004448D01*
X014740Y004606D02*
X014580Y004606D01*
X014580Y004765D02*
X014740Y004765D01*
X014798Y004923D02*
X014522Y004923D01*
X014335Y005082D02*
X014985Y005082D01*
X015335Y005082D02*
X023354Y005082D01*
X023310Y004975D02*
X023310Y004665D01*
X023429Y004378D01*
X023648Y004159D01*
X023935Y004040D01*
X024245Y004040D01*
X024532Y004159D01*
X024751Y004378D01*
X024870Y004665D01*
X024870Y004975D01*
X024751Y005262D01*
X024532Y005481D01*
X024245Y005600D01*
X023935Y005600D01*
X023648Y005481D01*
X023429Y005262D01*
X023310Y004975D01*
X023310Y004923D02*
X015522Y004923D01*
X015580Y004765D02*
X023310Y004765D01*
X023334Y004606D02*
X015580Y004606D01*
X015580Y004448D02*
X023400Y004448D01*
X023517Y004289D02*
X015580Y004289D01*
X015580Y004131D02*
X023715Y004131D01*
X024465Y004131D02*
X026720Y004131D01*
X026720Y004289D02*
X024663Y004289D01*
X024780Y004448D02*
X026720Y004448D01*
X026720Y004606D02*
X024846Y004606D01*
X024870Y004765D02*
X026720Y004765D01*
X026720Y004923D02*
X024870Y004923D01*
X024826Y005082D02*
X026720Y005082D01*
X026720Y005240D02*
X024760Y005240D01*
X024614Y005399D02*
X026720Y005399D01*
X026720Y005557D02*
X024348Y005557D01*
X023832Y005557D02*
X010400Y005557D01*
X010400Y005399D02*
X023566Y005399D01*
X023420Y005240D02*
X010332Y005240D01*
X010400Y005716D02*
X010750Y005716D01*
X010622Y005874D02*
X010400Y005874D01*
X010400Y006033D02*
X010580Y006033D01*
X010600Y006191D02*
X010400Y006191D01*
X010400Y006350D02*
X010696Y006350D01*
X010400Y006508D02*
X026720Y006508D01*
X026720Y006350D02*
X018704Y006350D01*
X018820Y006234D02*
X018574Y006480D01*
X018226Y006480D01*
X017980Y006234D01*
X017980Y005886D01*
X018226Y005640D01*
X018574Y005640D01*
X018820Y005886D01*
X018820Y006234D01*
X018820Y006191D02*
X026720Y006191D01*
X026720Y006033D02*
X018820Y006033D01*
X018808Y005874D02*
X026720Y005874D01*
X026720Y005716D02*
X018650Y005716D01*
X018150Y005716D02*
X015650Y005716D01*
X015574Y005640D02*
X015820Y005886D01*
X015820Y006234D01*
X015574Y006480D01*
X015226Y006480D01*
X014980Y006234D01*
X014980Y005886D01*
X015226Y005640D01*
X015574Y005640D01*
X015808Y005874D02*
X017992Y005874D01*
X017980Y006033D02*
X015820Y006033D01*
X015820Y006191D02*
X017980Y006191D01*
X018096Y006350D02*
X015704Y006350D01*
X015574Y006720D02*
X015226Y006720D01*
X014980Y006966D01*
X014980Y007314D01*
X015226Y007560D01*
X015574Y007560D01*
X015820Y007314D01*
X015820Y006966D01*
X015574Y006720D01*
X015679Y006825D02*
X018121Y006825D01*
X017980Y006984D02*
X015820Y006984D01*
X015820Y007142D02*
X017980Y007142D01*
X017980Y007301D02*
X015820Y007301D01*
X015675Y007459D02*
X018125Y007459D01*
X018130Y007776D02*
X015670Y007776D01*
X015574Y007680D02*
X015226Y007680D01*
X014980Y007926D01*
X014980Y008274D01*
X015226Y008520D01*
X015574Y008520D01*
X015820Y008274D01*
X015820Y007926D01*
X015574Y007680D01*
X015130Y007776D02*
X014790Y007776D01*
X014906Y007935D02*
X014980Y007935D01*
X014980Y008093D02*
X014940Y008093D01*
X014912Y008252D02*
X014980Y008252D01*
X015116Y008410D02*
X014804Y008410D01*
X014604Y008760D02*
X014758Y008824D01*
X014876Y008942D01*
X014940Y009096D01*
X014940Y009264D01*
X014876Y009418D01*
X014758Y009536D01*
X014604Y009600D01*
X013916Y009600D01*
X013762Y009536D01*
X013644Y009418D01*
X013580Y009264D01*
X013580Y009096D01*
X013644Y008942D01*
X013762Y008824D01*
X013916Y008760D01*
X014604Y008760D01*
X014820Y008886D02*
X015100Y008886D01*
X014980Y009006D02*
X015226Y008760D01*
X015574Y008760D01*
X015820Y009006D01*
X015820Y009354D01*
X015574Y009600D01*
X015226Y009600D01*
X014980Y009354D01*
X014980Y009006D01*
X014980Y009044D02*
X014918Y009044D01*
X014940Y009203D02*
X014980Y009203D01*
X014987Y009361D02*
X014899Y009361D01*
X014774Y009520D02*
X015146Y009520D01*
X015654Y009520D02*
X018146Y009520D01*
X018226Y009600D02*
X017980Y009354D01*
X017980Y009006D01*
X018226Y008760D01*
X018574Y008760D01*
X018820Y009006D01*
X018820Y009354D01*
X018574Y009600D01*
X018226Y009600D01*
X017987Y009361D02*
X015813Y009361D01*
X015820Y009203D02*
X017980Y009203D01*
X017980Y009044D02*
X015820Y009044D01*
X015700Y008886D02*
X018100Y008886D01*
X018116Y008410D02*
X015684Y008410D01*
X015820Y008252D02*
X017980Y008252D01*
X017980Y008093D02*
X015820Y008093D01*
X015820Y007935D02*
X017980Y007935D01*
X018558Y008569D02*
X013280Y008569D01*
X013280Y008727D02*
X018716Y008727D01*
X018700Y008886D02*
X018875Y008886D01*
X018820Y009044D02*
X019033Y009044D01*
X019080Y009203D02*
X018820Y009203D01*
X018813Y009361D02*
X019080Y009361D01*
X019080Y009520D02*
X018654Y009520D01*
X018691Y009837D02*
X019080Y009837D01*
X019080Y009995D02*
X018820Y009995D01*
X018820Y010154D02*
X019080Y010154D01*
X019080Y010312D02*
X018820Y010312D01*
X019520Y009995D02*
X019804Y009995D01*
X019738Y009837D02*
X019520Y009837D01*
X019520Y009678D02*
X019738Y009678D01*
X019789Y009520D02*
X019520Y009520D01*
X019520Y009361D02*
X019916Y009361D01*
X019932Y009044D02*
X019520Y009044D01*
X019520Y009203D02*
X020858Y009203D01*
X020880Y009044D02*
X020508Y009044D01*
X020645Y008886D02*
X020967Y008886D01*
X021208Y008727D02*
X020702Y008727D01*
X019936Y008252D02*
X018863Y008252D01*
X019022Y008410D02*
X019797Y008410D01*
X019738Y008569D02*
X019180Y008569D01*
X019339Y008727D02*
X019738Y008727D01*
X019795Y008886D02*
X019497Y008886D01*
X020524Y009361D02*
X020887Y009361D01*
X020983Y009520D02*
X020651Y009520D01*
X020636Y009995D02*
X020929Y009995D01*
X020854Y010154D02*
X020481Y010154D01*
X020543Y010471D02*
X020872Y010471D01*
X020974Y010629D02*
X020659Y010629D01*
X020702Y010788D02*
X026720Y010788D01*
X026720Y010946D02*
X021566Y010946D01*
X021750Y011105D02*
X026720Y011105D01*
X026720Y011263D02*
X021816Y011263D01*
X021822Y011422D02*
X026720Y011422D01*
X026720Y011580D02*
X021777Y011580D01*
X021658Y011739D02*
X026720Y011739D01*
X026720Y011897D02*
X020702Y011897D01*
X020686Y012056D02*
X026720Y012056D01*
X026720Y012214D02*
X020608Y012214D01*
X020387Y012373D02*
X026720Y012373D01*
X026720Y012531D02*
X014763Y012531D01*
X014895Y012373D02*
X020053Y012373D01*
X019832Y012214D02*
X014940Y012214D01*
X014923Y012056D02*
X019754Y012056D01*
X019738Y011897D02*
X014831Y011897D01*
X014747Y011580D02*
X015166Y011580D01*
X015008Y011422D02*
X014891Y011422D01*
X014940Y011263D02*
X014980Y011263D01*
X014980Y011105D02*
X014927Y011105D01*
X014840Y010946D02*
X015080Y010946D01*
X014758Y010496D02*
X014604Y010560D01*
X013916Y010560D01*
X013762Y010496D01*
X013644Y010378D01*
X013580Y010224D01*
X013580Y010056D01*
X013644Y009902D01*
X013762Y009784D01*
X013916Y009720D01*
X014604Y009720D01*
X014758Y009784D01*
X014876Y009902D01*
X014940Y010056D01*
X014940Y010224D01*
X014876Y010378D01*
X014758Y010496D01*
X014783Y010471D02*
X015137Y010471D01*
X014980Y010312D02*
X014903Y010312D01*
X014940Y010154D02*
X014980Y010154D01*
X014980Y009995D02*
X014915Y009995D01*
X014811Y009837D02*
X015109Y009837D01*
X015691Y009837D02*
X018109Y009837D01*
X017980Y009995D02*
X015820Y009995D01*
X015820Y010154D02*
X017980Y010154D01*
X017980Y010312D02*
X015820Y010312D01*
X013737Y010471D02*
X013280Y010471D01*
X013280Y010312D02*
X013617Y010312D01*
X013580Y010154D02*
X013280Y010154D01*
X013280Y009995D02*
X013605Y009995D01*
X013709Y009837D02*
X013280Y009837D01*
X013280Y009678D02*
X019080Y009678D01*
X020694Y010946D02*
X021114Y010946D01*
X020930Y011105D02*
X020627Y011105D01*
X020667Y011739D02*
X021022Y011739D01*
X021312Y010629D02*
X021368Y010629D01*
X021368Y010471D02*
X021312Y010471D01*
X021706Y010629D02*
X026720Y010629D01*
X026720Y010471D02*
X021808Y010471D01*
X021717Y008410D02*
X026720Y008410D01*
X026720Y008252D02*
X021801Y008252D01*
X021822Y008093D02*
X026720Y008093D01*
X026720Y007935D02*
X021792Y007935D01*
X021694Y007776D02*
X026720Y007776D01*
X026720Y007618D02*
X020702Y007618D01*
X020701Y007459D02*
X026720Y007459D01*
X026720Y007301D02*
X020635Y007301D01*
X020473Y007142D02*
X026720Y007142D01*
X026720Y006984D02*
X018820Y006984D01*
X018820Y007142D02*
X019967Y007142D01*
X019805Y007301D02*
X018820Y007301D01*
X018679Y006825D02*
X026720Y006825D01*
X026720Y006667D02*
X010400Y006667D01*
X010400Y006825D02*
X010721Y006825D01*
X010610Y006984D02*
X010400Y006984D01*
X010400Y007142D02*
X010580Y007142D01*
X010612Y007301D02*
X010400Y007301D01*
X010400Y007459D02*
X010725Y007459D01*
X009960Y008252D02*
X009724Y008252D01*
X009851Y008410D02*
X009960Y008410D01*
X009960Y008569D02*
X009902Y008569D01*
X009902Y008727D02*
X009960Y008727D01*
X009960Y008886D02*
X009836Y008886D01*
X009960Y009044D02*
X009680Y009044D01*
X009960Y009203D02*
X008782Y009203D01*
X008768Y009044D02*
X009160Y009044D01*
X009004Y008886D02*
X008693Y008886D01*
X008480Y008727D02*
X008938Y008727D01*
X008938Y008569D02*
X007760Y008569D01*
X008657Y008410D02*
X008989Y008410D01*
X009096Y009361D02*
X008745Y009361D01*
X008637Y009520D02*
X008981Y009520D01*
X009744Y009361D02*
X009960Y009361D01*
X011811Y009837D02*
X012840Y009837D01*
X012840Y009995D02*
X011915Y009995D01*
X011940Y010154D02*
X012840Y010154D01*
X012840Y010312D02*
X011903Y010312D01*
X013280Y009520D02*
X013746Y009520D01*
X013621Y009361D02*
X013280Y009361D01*
X013280Y009203D02*
X013580Y009203D01*
X013602Y009044D02*
X013280Y009044D01*
X013280Y008886D02*
X013700Y008886D01*
X013716Y008410D02*
X013285Y008410D01*
X013412Y008252D02*
X013608Y008252D01*
X013580Y008093D02*
X013539Y008093D01*
X014795Y007459D02*
X015125Y007459D01*
X014980Y007301D02*
X014908Y007301D01*
X014940Y007142D02*
X014980Y007142D01*
X014980Y006984D02*
X014910Y006984D01*
X014799Y006825D02*
X015121Y006825D01*
X015096Y006350D02*
X014824Y006350D01*
X014920Y006191D02*
X014980Y006191D01*
X014980Y006033D02*
X014940Y006033D01*
X014898Y005874D02*
X014992Y005874D01*
X015150Y005716D02*
X014770Y005716D01*
X015529Y003972D02*
X026720Y003972D01*
X026720Y003814D02*
X015374Y003814D01*
X020653Y007776D02*
X020986Y007776D01*
X020888Y007935D02*
X020527Y007935D01*
X016078Y013324D02*
X026720Y013324D01*
X026720Y013482D02*
X016154Y013482D01*
X016160Y013641D02*
X026720Y013641D01*
X026720Y013799D02*
X016160Y013799D01*
X016160Y013958D02*
X023747Y013958D01*
X023530Y014116D02*
X016160Y014116D01*
X016122Y014275D02*
X023405Y014275D01*
X023340Y014433D02*
X016001Y014433D01*
X015479Y014433D02*
X015001Y014433D01*
X015122Y014275D02*
X015358Y014275D01*
X015320Y014116D02*
X015160Y014116D01*
X015160Y013958D02*
X015320Y013958D01*
X015320Y013799D02*
X015160Y013799D01*
X015160Y013641D02*
X015320Y013641D01*
X015326Y013482D02*
X015154Y013482D01*
X015078Y013324D02*
X015402Y013324D01*
X014402Y013324D02*
X014078Y013324D01*
X014154Y013482D02*
X014326Y013482D01*
X014320Y013641D02*
X014160Y013641D01*
X014160Y013799D02*
X014320Y013799D01*
X014320Y013958D02*
X014160Y013958D01*
X014160Y014116D02*
X014320Y014116D01*
X014358Y014275D02*
X014122Y014275D01*
X014001Y014433D02*
X014479Y014433D01*
X015097Y015384D02*
X015383Y015384D01*
X015320Y015543D02*
X015160Y015543D01*
X015160Y015701D02*
X015320Y015701D01*
X015320Y015860D02*
X015160Y015860D01*
X015160Y016018D02*
X015320Y016018D01*
X015320Y016177D02*
X015160Y016177D01*
X015114Y016335D02*
X015366Y016335D01*
X015500Y016494D02*
X014980Y016494D01*
X013383Y015384D02*
X005791Y015384D01*
X005340Y005557D02*
X002880Y005557D01*
X002880Y005399D02*
X005046Y005399D01*
X004888Y005240D02*
X002880Y005240D01*
X002880Y005082D02*
X004823Y005082D01*
X004770Y004923D02*
X002880Y004923D01*
X002880Y004765D02*
X004770Y004765D01*
X004786Y004606D02*
X002880Y004606D01*
X002880Y004448D02*
X004852Y004448D01*
X004957Y004289D02*
X002880Y004289D01*
X002880Y004131D02*
X005127Y004131D01*
X002880Y000485D02*
X026720Y000485D01*
X026720Y013958D02*
X024433Y013958D01*
X024650Y014116D02*
X026720Y014116D01*
X026720Y014275D02*
X024775Y014275D01*
X024840Y014433D02*
X026720Y014433D01*
X026720Y014592D02*
X024870Y014592D01*
X024870Y014750D02*
X026720Y014750D01*
X026720Y014909D02*
X024831Y014909D01*
X024765Y015067D02*
X026720Y015067D01*
X026720Y015226D02*
X024627Y015226D01*
X024379Y015384D02*
X026720Y015384D01*
D14*
X021340Y011375D02*
X019815Y011375D01*
X019300Y010860D01*
X019300Y009000D01*
X018400Y008100D01*
X014260Y007140D02*
X014020Y007140D01*
X013060Y008340D01*
X013060Y014440D01*
X013440Y014820D01*
X014140Y014820D01*
X014740Y015420D01*
X014740Y015880D01*
X010180Y011140D02*
X009420Y011900D01*
X008300Y011355D02*
X007540Y010595D01*
X007540Y004260D01*
X006700Y003420D01*
X006700Y001920D01*
X007360Y001260D01*
X007360Y002580D02*
X010180Y005400D01*
X010180Y011140D01*
X010600Y002820D02*
X013060Y002820D01*
X014160Y001720D01*
X014160Y001440D01*
X013160Y001440D02*
X013160Y001640D01*
X012460Y002340D01*
X011440Y002340D01*
X010360Y001260D01*
X010360Y002580D02*
X010600Y002820D01*
M02*
